# xmcd
#
# Track frame offsets:
#	150
#	12050
#	26680
#	43450
#	61140
#	75400
#	90290
#	106250
#	124570
#	136510
#	150365
#	168865
#	182245
#	195845
#	206315
#	220545
#	229550
#	242700
#	254215
#	268450
#	280760
#	291010
#	305210
#	320005
#	334150
#
# Disc length: 4693 seconds
#
# Revision: 1
# Processed by: cddbd v1.5.1PL0 Copyright (c) Steve Scherf et al.
# Submitted via: audiograbber 1.83.01
#
DISCID=53125319
DTITLE=Various Artist - Soul Wav. Vol 1
DYEAR=1900
DGENRE=Beach Music
TTITLE0=Billy Scott - King Of The Road
TTITLE1=Bill Pinkney - Drip Drop
TTITLE2=Maurice Williams - Please Accept My Love
TTITLE3=Joe Simon - There Is A God
TTITLE4=Marlisa - Love Guess Who
TTITLE5=Neptune Blues - I Found Somebody
TTITLE6=Cindy Floyd - Shut Up and Kiss Me
TTITLE7=Clay Brown and Gene Miller - Beach Baby
TTITLE8=Sugarbees ft Joe Graziani - The Heat Is On
TTITLE9=Sugarbees ft Sallie Ham - Havin' A Party
TTITLE10=Drink Small - Leave Your Panties Home
TTITLE11=Boys Club ft A Babe - Dancin' and Shaggin'
TTITLE12=The Entertainers - September In The Rain
TTITLE13=Toni Williams - Shake A Hand
TTITLE14=Groove Therapy - I'd Be A Fool
TTITLE15=Georgia Prophets - I Don't Love You No More
TTITLE16=Sammy O'Banion - I've Never Found
TTITLE17=Poets - Wrapped Around Your Finger
TTITLE18=Commands - No Time
TTITLE19=Mellow Fellows - My Baby Needs Me
TTITLE20=Scotty Todd - Ain't No Big Thing
TTITLE21=Leslie - Love's Been Rough
TTITLE22=Sonya Moore - Tears Will Tell All
TTITLE23=Dan Trexler - When A Man Loves A Woman
TTITLE24=Warren Stone - Someday
EXTD=
EXTT0=
EXTT1=
EXTT2=
EXTT3=
EXTT4=
EXTT5=
EXTT6=
EXTT7=
EXTT8=
EXTT9=
EXTT10=
EXTT11=
EXTT12=
EXTT13=
EXTT14=
EXTT15=
EXTT16=
EXTT17=
EXTT18=
EXTT19=
EXTT20=
EXTT21=
EXTT22=
EXTT23=
EXTT24=
PLAYORDER=
